# xmcd
#
# Track frame offsets: 
#        150
#        8973
#        23476
#        34470
#        48108
#        63535
#        82261
#        89312
#        105640
#        112177
#        123191
#        141468
#        150097
#        165157
#
# Disc length: 2376 seconds
#
# Revision: 0
# Processed by: cddbd v1.5.2PL0 Copyright (c) Steve Scherf et al.
# Submitted via: ExactAudioCopy v0.95b4
#
DISCID=ac09460e
DTITLE=Trni - Pramen
DYEAR=1900
DGENRE=Bluegrass
TTITLE0=Jarni smutneni
TTITLE1=Pramen
TTITLE2=Budik
TTITLE3=Hrnicek s kavou
TTITLE4=Let silene saly
TTITLE5=Prsi
TTITLE6=Draci na sanich
TTITLE7=Ozvena
TTITLE8=Torino
TTITLE9=Napetkrat
TTITLE10=Dobrou a zlo
TTITLE11=Pred zamkem
TTITLE12=Rub a lic
TTITLE13=Do vetru
EXTD=
EXTT0=
EXTT1=
EXTT2=
EXTT3=
EXTT4=
EXTT5=
EXTT6=
EXTT7=
EXTT8=
EXTT9=
EXTT10=
EXTT11=
EXTT12=
EXTT13=
PLAYORDER=
